<?xml version="1.0" standalone="no"?>
<!DOCTYPE svg PUBLIC "-//W3C//DTD SVG 20010904//EN"
 "http://www.w3.org/TR/2001/REC-SVG-20010904/DTD/svg10.dtd">
<svg version="1.0" xmlns="http://www.w3.org/2000/svg"
 width="40px" height="40px" viewBox="0 0 2000.000000 2000.000000"
 preserveAspectRatio="xMidYMid meet">

<g transform="translate(0.000000,2000.000000) scale(0.100000,-0.100000)"
fill="#ff0000" stroke="#ff0000">
<path d="M8687 19448 c3 -20 -5 -27 -54 -50 -35 -16 -86 -29 -128 -33 -38 -4
-106 -15 -150 -25 -44 -10 -116 -24 -160 -30 -92 -13 -128 -24 -170 -55 -58
-42 -80 -48 -207 -56 -128 -8 -129 -8 -188 -47 -37 -25 -76 -42 -107 -47 -26
-4 -73 -15 -103 -26 -30 -11 -108 -28 -173 -39 -81 -13 -137 -28 -180 -49 -53
-25 -82 -32 -192 -41 -71 -7 -148 -12 -169 -11 -49 0 -96 -19 -144 -59 -20
-16 -41 -30 -47 -30 -6 0 -24 -14 -41 -31 -16 -17 -47 -40 -69 -51 -22 -11
-59 -34 -82 -50 -33 -25 -54 -31 -110 -35 -99 -6 -110 -10 -156 -52 -55 -51
-109 -77 -188 -91 -89 -17 -118 -29 -161 -68 -27 -24 -53 -36 -103 -47 -58
-12 -72 -20 -113 -62 -26 -26 -74 -61 -107 -78 -33 -16 -74 -45 -92 -64 -17
-19 -50 -42 -74 -50 -58 -22 -70 -43 -41 -74 27 -28 27 -39 4 -60 -25 -23 -58
-21 -94 4 -36 26 -45 23 -148 -55 -41 -31 -93 -61 -115 -67 -73 -19 -135 -91
-135 -158 0 -24 -5 -43 -12 -46 -7 -2 -45 -13 -84 -25 -51 -15 -90 -36 -140
-74 -77 -60 -74 -57 -198 -202 -49 -57 -94 -104 -101 -104 -7 0 -28 -11 -47
-23 -19 -13 -48 -27 -64 -31 -16 -4 -49 -27 -74 -52 -29 -27 -62 -49 -90 -57
-34 -10 -49 -21 -63 -47 -23 -41 -159 -164 -222 -200 -24 -14 -56 -37 -72 -51
-15 -15 -44 -35 -63 -44 -19 -10 -64 -43 -100 -74 -36 -31 -82 -69 -102 -84
-22 -16 -40 -40 -44 -55 -3 -15 -10 -38 -14 -52 -5 -14 -21 -65 -36 -115 -26
-89 -27 -91 -115 -177 -49 -48 -113 -100 -142 -117 -68 -39 -113 -95 -147
-185 -21 -55 -34 -74 -56 -86 -40 -21 -170 -154 -205 -210 -16 -25 -53 -62
-86 -85 -32 -22 -84 -65 -116 -97 -48 -46 -58 -61 -56 -85 5 -47 -13 -196 -26
-223 -7 -14 -28 -38 -45 -55 -18 -16 -51 -59 -74 -95 -24 -36 -68 -90 -100
-120 -31 -30 -63 -70 -72 -88 -26 -56 -56 -93 -131 -168 -71 -69 -73 -72 -92
-155 -11 -46 -23 -113 -27 -149 -3 -36 -17 -100 -31 -142 -19 -61 -30 -82 -56
-100 -36 -26 -98 -89 -146 -148 -29 -36 -42 -65 -83 -188 -9 -24 -8 -52 1
-110 14 -89 5 -128 -52 -216 -18 -28 -46 -80 -62 -116 -17 -36 -43 -87 -59
-113 -17 -28 -37 -86 -48 -135 -10 -48 -28 -130 -39 -182 -17 -79 -29 -108
-72 -173 -45 -70 -89 -172 -118 -277 -5 -19 -12 -84 -14 -145 -5 -113 -16
-158 -65 -280 -15 -38 -32 -102 -38 -140 -6 -39 -22 -95 -36 -125 -18 -42 -26
-81 -31 -160 -3 -58 -10 -132 -15 -165 -4 -34 -4 -135 0 -225 5 -121 4 -178
-6 -219 -7 -31 -15 -94 -19 -141 -7 -93 -32 -233 -70 -397 -3 -12 -23 -40 -45
-62 -26 -25 -40 -48 -40 -65 0 -34 -27 -24 -33 12 -2 15 -4 -47 -4 -138 -1
-91 1 -158 4 -148 7 28 31 29 38 1 3 -14 20 -46 37 -71 38 -54 51 -105 68
-252 9 -80 20 -129 37 -163 35 -71 44 -133 27 -185 -17 -50 -10 -237 26 -637
5 -60 12 -158 14 -217 5 -104 6 -111 54 -210 80 -168 103 -256 122 -460 9
-102 14 -124 41 -169 16 -29 41 -84 54 -123 13 -39 34 -96 48 -126 17 -38 27
-83 32 -145 8 -104 30 -232 43 -249 5 -6 12 -23 15 -37 4 -14 22 -52 42 -84
19 -33 35 -68 35 -80 0 -11 26 -59 57 -105 56 -84 93 -181 93 -243 0 -19 13
-41 40 -70 75 -78 95 -115 93 -170 -2 -47 1 -54 42 -98 33 -35 69 -99 135
-236 94 -196 98 -203 143 -276 24 -39 27 -50 19 -85 -12 -50 10 -103 68 -170
22 -25 49 -64 60 -86 26 -53 78 -123 110 -144 38 -26 134 -125 146 -153 53
-112 73 -145 101 -168 39 -32 63 -76 63 -117 0 -30 62 -168 116 -261 14 -23
49 -63 78 -88 30 -25 70 -74 92 -111 53 -90 126 -172 211 -235 39 -29 79 -67
89 -83 10 -17 30 -41 45 -53 15 -13 40 -45 54 -71 59 -102 119 -181 145 -192
38 -16 87 9 96 48 3 15 10 41 14 57 18 63 41 244 41 330 0 50 -3 245 -7 435
-5 190 -7 462 -5 605 2 143 4 301 4 350 1 447 1 1456 0 1515 -1 68 -1 161 0
450 0 52 -1 196 -1 320 -1 124 -2 428 -2 675 -1 248 -2 479 -2 515 0 36 0 144
0 240 1 96 0 191 0 210 -1 19 0 339 1 710 1 525 5 699 16 785 18 133 19 332 3
475 l-12 106 36 90 c20 49 40 107 44 129 4 22 24 78 44 125 20 47 40 108 43
137 8 70 59 185 112 254 24 31 47 68 51 82 3 15 10 30 16 33 14 9 100 195 110
239 4 22 13 69 19 105 6 36 20 101 31 145 45 177 63 222 135 322 42 59 44 65
45 135 0 46 5 79 14 88 7 9 25 42 40 75 16 35 53 88 88 125 34 36 69 76 78 88
10 12 27 22 39 22 11 0 29 5 40 10 24 13 93 106 112 151 8 19 40 57 71 85 49
46 56 56 56 90 1 73 45 137 162 237 36 31 66 67 83 102 35 73 110 171 145 192
16 9 33 28 38 42 12 32 278 303 350 357 29 21 59 49 68 61 8 13 32 32 54 43
22 11 52 38 66 60 15 22 30 40 34 40 16 0 69 97 76 140 8 50 42 90 76 90 29 0
173 84 226 132 31 28 52 37 93 43 45 6 63 16 124 67 38 33 93 71 120 85 28 14
66 40 86 59 28 27 48 36 95 44 104 17 127 32 197 139 36 53 72 103 81 110 10
8 58 22 107 32 l90 17 55 60 c33 37 65 63 83 67 16 3 51 20 77 37 44 28 61 32
154 39 183 14 282 28 304 43 11 9 46 33 76 55 97 70 107 74 206 76 93 2 109 7
181 58 31 21 59 30 129 38 94 12 138 31 254 110 l55 37 150 6 c219 8 498 35
590 57 173 41 260 48 615 50 190 1 383 -1 430 -5 47 -3 155 -11 240 -18 131
-9 163 -15 204 -35 41 -21 67 -26 150 -28 161 -5 579 -33 603 -40 12 -4 63 0
112 9 65 12 100 14 131 7 47 -10 85 -48 95 -93 7 -28 57 -78 79 -78 7 0 25
-13 40 -29 31 -32 65 -43 216 -67 85 -13 125 -25 210 -66 58 -28 136 -58 173
-68 51 -14 79 -28 112 -59 36 -33 52 -41 82 -41 60 0 102 -16 146 -57 46 -42
86 -61 195 -93 55 -16 85 -31 117 -61 24 -22 59 -45 79 -50 24 -7 54 -31 96
-78 45 -50 73 -73 108 -86 26 -10 61 -30 77 -46 30 -28 75 -42 178 -55 52 -6
43 1 202 -162 46 -47 72 -66 110 -77 79 -24 106 -52 180 -190 18 -34 35 -47
107 -82 61 -29 94 -52 114 -80 39 -52 51 -60 109 -77 42 -13 125 -64 170 -104
6 -5 35 -43 65 -83 30 -41 105 -124 167 -185 111 -110 111 -111 106 -151 -5
-42 0 -49 81 -106 20 -14 26 -26 26 -57 0 -32 8 -48 50 -96 28 -31 50 -62 50
-68 0 -16 66 -114 114 -167 135 -152 176 -213 176 -262 0 -43 53 -125 128
-201 59 -59 79 -88 103 -146 16 -40 29 -79 29 -87 0 -30 60 -119 114 -168 153
-139 216 -207 245 -263 18 -34 60 -211 76 -322 12 -75 23 -112 56 -175 38 -71
42 -88 44 -155 2 -80 29 -272 47 -330 6 -19 24 -63 40 -96 16 -34 33 -83 37
-110 47 -271 61 -368 70 -485 5 -74 15 -147 20 -162 6 -15 16 -68 22 -118 7
-57 21 -112 38 -152 25 -54 29 -79 35 -197 8 -159 25 -249 60 -318 25 -50 26
-52 11 -109 -8 -31 -15 -83 -15 -115 0 -34 -9 -82 -21 -116 -11 -31 -25 -72
-31 -91 -5 -18 -19 -52 -31 -74 -16 -32 -20 -56 -19 -112 2 -40 -2 -93 -8
-120 -6 -26 -13 -120 -16 -209 -5 -165 -15 -257 -38 -336 -8 -25 -19 -78 -25
-118 -6 -40 -23 -95 -38 -125 -21 -39 -28 -69 -30 -117 -8 -244 -9 -248 -46
-323 -19 -40 -38 -85 -42 -102 -11 -51 -61 -167 -97 -227 -20 -31 -43 -90 -52
-130 -10 -40 -28 -100 -41 -133 -12 -33 -28 -91 -35 -130 -25 -146 -45 -188
-126 -273 -66 -68 -77 -86 -99 -152 -49 -153 -66 -196 -99 -250 -18 -30 -43
-75 -56 -99 -24 -47 -77 -114 -161 -205 -30 -32 -65 -77 -76 -100 -53 -103
-72 -156 -78 -211 -6 -54 -4 -63 19 -94 29 -39 34 -92 12 -110 -8 -7 -43 -14
-77 -17 -74 -5 -105 -22 -114 -63 -10 -47 -52 -75 -137 -91 -52 -10 -108 -50
-108 -76 0 -7 -11 -25 -24 -41 -34 -40 -66 -108 -66 -138 0 -70 -82 -154 -169
-174 -44 -10 -91 -36 -104 -58 -4 -7 -25 -22 -47 -33 -21 -11 -46 -30 -57 -43
-10 -13 -37 -35 -59 -50 -112 -70 -213 -177 -328 -349 -33 -48 -47 -60 -88
-74 -34 -11 -59 -29 -86 -60 -20 -25 -60 -61 -89 -80 -56 -37 -93 -78 -93
-103 -1 -24 -48 -75 -114 -120 -57 -40 -62 -41 -140 -41 -58 0 -93 -6 -121
-19 -49 -23 -150 -117 -160 -149 -4 -13 -31 -39 -61 -59 -48 -32 -65 -37 -137
-43 -90 -7 -116 -17 -140 -54 -9 -13 -31 -27 -49 -31 -18 -4 -73 -20 -123 -35
-49 -15 -115 -33 -146 -39 -31 -7 -86 -30 -122 -51 -44 -27 -78 -40 -102 -40
-42 0 -101 -23 -130 -50 -22 -21 -75 -34 -175 -45 -78 -9 -111 -24 -145 -69
-15 -20 -38 -36 -55 -40 -17 -3 -44 -16 -60 -28 -28 -20 -44 -23 -158 -24
-161 -3 -236 -15 -303 -50 -30 -15 -103 -37 -164 -50 -169 -34 -282 -63 -370
-95 l-81 -28 -172 8 c-141 8 -185 6 -240 -6 -116 -26 -218 -32 -542 -32 l-315
-1 -65 40 c-36 22 -81 45 -100 50 -45 12 -269 17 -340 7 -42 -6 -61 -4 -80 7
-66 40 -128 66 -161 66 -26 0 -53 11 -90 36 -51 35 -57 37 -173 45 l-121 8
-74 -36 -74 -37 -35 20 c-19 10 -42 33 -51 49 -9 17 -24 41 -34 55 -9 13 -17
32 -17 40 0 9 -21 45 -47 80 -58 81 -114 200 -125 265 -4 28 -13 77 -19 111
-11 54 -10 71 11 159 18 79 22 121 19 209 -2 61 0 161 4 221 6 76 5 148 -5
235 -14 133 -15 254 -3 605 6 189 -3 511 -20 665 -11 103 -17 227 -21 419 l-4
214 29 61 c17 37 36 103 47 166 l18 105 78 77 c88 87 103 92 223 86 66 -3 78
-7 107 -34 18 -17 71 -54 118 -84 47 -29 105 -66 128 -81 45 -29 103 -44 204
-54 44 -5 71 -15 110 -42 57 -40 85 -43 214 -28 l62 7 44 -41 c25 -22 63 -48
84 -57 21 -9 53 -29 71 -44 60 -53 75 -55 503 -55 317 1 405 4 445 15 l49 15
27 79 c27 79 47 106 80 106 29 0 98 -28 133 -55 18 -14 44 -25 58 -25 40 0
145 40 196 74 26 18 65 37 87 44 23 6 61 25 86 42 25 16 76 37 115 45 38 9 92
29 119 45 33 19 72 31 115 36 72 7 109 23 158 65 23 20 43 29 68 29 45 0 90
24 112 59 35 57 128 160 164 180 38 23 46 31 143 159 33 44 79 92 103 107 23
15 55 43 70 62 14 20 61 60 103 89 42 30 80 61 83 70 3 9 9 41 12 72 9 75 18
90 67 111 23 10 47 25 54 32 39 48 143 291 143 335 0 32 21 73 55 104 15 14
35 41 45 61 11 20 35 57 55 83 32 43 48 77 84 189 7 21 16 72 20 113 7 74 7
75 58 119 49 43 51 46 57 112 4 38 12 86 18 108 6 22 11 78 13 125 2 70 8 96
33 150 37 79 57 237 47 375 -8 107 -16 138 -61 217 -19 33 -37 72 -41 87 -3
14 -16 47 -29 73 -20 38 -24 63 -24 131 0 67 -4 89 -18 108 -10 13 -38 56 -61
96 l-43 72 -7 156 -7 155 -66 62 c-68 65 -132 173 -157 264 -6 22 -29 71 -52
109 -35 57 -43 81 -49 142 -8 78 -25 113 -68 140 -15 9 -38 27 -52 39 -14 12
-49 32 -77 44 -39 17 -62 35 -87 70 -19 27 -60 67 -90 89 -38 29 -62 56 -80
93 -32 67 -116 158 -146 158 -34 0 -59 18 -74 54 -7 18 -38 58 -69 89 -43 45
-62 57 -86 57 -19 0 -40 10 -58 26 -15 15 -42 33 -59 40 -18 7 -45 24 -60 37
-49 40 -67 46 -127 40 -64 -7 -113 9 -122 38 -11 35 -49 66 -126 103 -42 20
-79 36 -83 36 -4 0 -31 20 -61 43 -51 42 -56 44 -139 50 -91 6 -113 14 -163
57 -56 49 -88 54 -348 55 -132 0 -283 -3 -335 -6 -52 -3 -147 -2 -210 4 -181
16 -413 -17 -469 -67 -25 -22 -86 -33 -211 -40 -129 -7 -129 -7 -235 -101 -59
-52 -79 -63 -130 -74 -33 -7 -80 -26 -104 -42 -24 -16 -64 -31 -90 -34 -80
-10 -125 -26 -163 -59 -88 -75 -126 -103 -167 -125 -24 -12 -53 -33 -63 -47
-12 -15 -34 -26 -58 -30 -23 -4 -56 -21 -84 -45 -26 -21 -70 -45 -99 -53 -30
-9 -72 -29 -94 -45 -55 -40 -109 -147 -118 -235 -10 -95 -47 -126 -168 -141
-38 -5 -68 -15 -85 -30 -15 -12 -37 -27 -48 -33 -12 -6 -45 -47 -74 -89 -50
-76 -52 -79 -47 -138 6 -88 -6 -118 -82 -198 -37 -40 -75 -84 -84 -99 -9 -15
-38 -51 -63 -79 -67 -75 -82 -118 -77 -209 5 -74 5 -75 -33 -125 -36 -46 -39
-55 -44 -135 l-5 -86 -43 -39 c-45 -40 -90 -118 -109 -190 -6 -22 -17 -89 -23
-150 -7 -60 -19 -134 -26 -163 -34 -131 -48 -424 -30 -612 14 -133 14 -732 1
-825 -4 -22 -1 -85 6 -140 10 -84 10 -117 -3 -207 -11 -70 -13 -120 -8 -145 7
-31 11 -586 8 -1078 0 -49 -1 -137 -1 -195 0 -58 0 -134 0 -170 -1 -36 0 -146
1 -245 1 -99 -2 -387 -6 -640 -6 -326 -6 -470 2 -495 16 -51 14 -3524 -2
-3600 -14 -65 -24 -576 -12 -639 15 -85 90 -128 187 -108 41 8 63 7 129 -11
43 -11 121 -24 173 -27 88 -7 96 -9 131 -41 30 -27 53 -38 109 -48 57 -11 79
-21 110 -49 22 -20 59 -41 83 -48 84 -23 206 -77 252 -113 40 -30 70 -41 106
-38 3 0 82 -6 175 -14 116 -10 222 -13 335 -8 l165 6 40 -29 c53 -38 89 -53
128 -53 18 0 68 -12 112 -26 44 -14 125 -30 180 -35 55 -5 149 -14 208 -20 60
-5 138 -16 173 -25 85 -19 503 -23 549 -5 65 26 140 33 406 36 243 3 285 5
352 24 96 26 139 31 369 39 l186 7 74 39 c70 37 78 39 203 47 144 8 176 17
220 59 17 16 59 45 93 64 51 29 81 38 147 45 83 10 127 26 174 62 19 16 40 19
120 18 53 -1 123 3 156 9 33 6 116 16 185 22 121 12 127 14 177 51 52 39 130
64 164 54 23 -8 108 36 157 79 54 48 68 53 176 65 100 12 123 19 145 45 7 8
43 24 80 35 38 11 74 28 81 37 8 8 27 22 44 31 17 9 53 33 81 53 27 21 82 48
120 60 66 22 167 82 195 115 7 8 16 15 21 15 4 0 33 9 64 21 43 16 61 30 81
60 16 25 40 46 67 58 39 18 217 63 297 76 19 3 58 15 87 26 47 19 55 27 84 85
18 35 35 64 39 64 4 0 11 10 17 23 6 12 35 52 65 87 30 36 63 83 74 105 17 35
25 41 69 52 76 17 136 15 210 -8 74 -23 108 -16 121 23 3 11 32 50 64 87 44
51 59 78 65 111 5 29 17 52 36 69 63 57 106 89 147 110 26 13 52 38 68 64 32
51 94 117 110 117 6 0 27 11 47 24 20 14 53 28 74 32 28 5 52 21 90 60 50 51
55 54 103 54 58 0 126 -25 140 -51 6 -10 32 -31 58 -45 68 -39 98 -70 153
-152 68 -103 75 -151 71 -487 -1 -77 2 -158 8 -180 15 -57 19 -265 9 -443 -7
-125 -6 -161 6 -195 20 -58 20 -62 -20 -122 -58 -87 -60 -101 -18 -228 33
-104 39 -115 89 -161 30 -27 54 -55 54 -63 0 -8 -23 -28 -50 -45 -41 -26 -52
-38 -60 -72 -6 -23 -15 -58 -22 -78 -14 -47 -2 -63 52 -71 27 -3 54 -18 85
-44 l44 -40 314 -7 c223 -5 329 -11 368 -21 46 -13 103 -13 394 -4 268 9 359
9 431 -1 50 -7 109 -9 130 -6 22 4 75 7 119 7 44 1 130 7 190 15 61 8 179 13
266 12 178 -2 210 8 241 74 13 26 26 38 48 43 19 4 36 16 42 31 13 28 35 32
41 6 3 -9 5 2132 4 4758 0 2626 -2 4765 -4 4753 -2 -13 -11 -23 -18 -23 -8 0
-17 10 -20 23 -4 12 -21 36 -38 54 -26 27 -29 37 -24 69 3 20 14 45 24 56 15
17 15 24 4 61 -7 23 -13 61 -12 85 1 49 -19 136 -57 237 -23 62 -26 91 -33
260 -11 270 -27 552 -35 605 -5 35 -17 56 -54 96 -43 46 -49 57 -59 125 -7 41
-23 99 -35 129 -13 31 -27 89 -31 130 -3 41 -17 109 -30 150 -12 41 -30 111
-40 155 -21 99 -48 162 -101 241 -27 42 -45 82 -54 125 -7 35 -23 93 -36 129
-36 106 -56 181 -65 252 -4 37 -19 93 -32 125 -13 32 -32 96 -41 143 -23 110
-34 135 -89 196 -26 28 -62 80 -81 115 -19 35 -46 85 -60 111 -14 26 -30 49
-36 53 -27 17 -110 230 -110 284 0 31 -51 124 -79 143 -11 8 -38 45 -60 83
-22 37 -44 71 -48 74 -4 3 -23 23 -41 44 -31 37 -33 41 -26 98 6 52 3 65 -22
115 -16 31 -42 68 -58 83 -71 63 -76 72 -76 123 0 35 -7 60 -26 89 -14 23 -34
60 -43 83 -10 22 -30 47 -45 55 -14 8 -33 25 -41 38 -17 26 -74 57 -122 68
-38 8 -83 57 -83 90 0 27 -127 185 -179 223 -32 23 -61 78 -61 114 0 29 -47
102 -108 168 -40 43 -64 61 -95 69 -61 15 -92 54 -128 157 -17 49 -40 105 -50
126 -18 36 -107 111 -171 144 -59 31 -89 58 -114 105 -30 55 -68 79 -123 79
-36 0 -44 4 -61 33 -11 17 -20 42 -20 53 0 33 -59 115 -152 208 -84 85 -121
106 -191 106 -19 0 -38 10 -57 31 -16 16 -41 43 -56 60 -19 20 -37 29 -58 29
-17 0 -64 17 -105 38 -70 35 -77 41 -115 109 -23 40 -56 97 -73 127 -18 31
-33 62 -33 70 0 16 -60 66 -79 66 -6 0 -31 18 -55 40 -24 22 -48 40 -53 40 -5
0 -18 9 -27 19 -10 11 -39 29 -64 41 -26 12 -63 34 -82 49 -52 41 -71 49 -131
57 -78 10 -60 -6 -210 191 -32 43 -48 55 -85 64 -25 6 -65 28 -90 49 -37 30
-59 39 -116 49 -90 15 -118 30 -189 102 -34 34 -67 59 -79 59 -11 0 -42 20
-68 44 -54 51 -87 66 -140 66 -61 0 -188 51 -242 97 -48 40 -53 41 -137 48
-119 8 -311 41 -329 55 -7 7 -18 29 -24 49 -10 37 -34 61 -120 121 -31 22 -48
26 -156 30 -121 5 -122 5 -176 43 -52 35 -62 38 -163 47 l-107 9 -65 58 c-110
99 -113 100 -313 107 l-175 6 -75 39 c-124 64 -215 83 -440 91 -208 8 -244 15
-299 63 -23 19 -32 33 -28 47 5 20 -6 20 -1308 20 l-1312 0 4 -22z m-5659
-3480 c18 -18 14 -53 -8 -73 -17 -15 -24 -16 -45 -7 -29 13 -43 56 -25 77 15
18 61 20 78 3z m8800 -7804 c48 -33 6 -104 -63 -104 -38 0 -85 33 -85 60 0 48
99 78 148 44z m326 -103 c9 -15 -23 -36 -36 -23 -5 5 -7 15 -4 21 9 13 33 14
40 2z"/>
<path d="M9998 609 c-29 -16 -21 -29 17 -29 37 0 49 22 19 34 -19 7 -15 8 -36
-5z"/>
<path d="M10003 533 c9 -2 23 -2 30 0 6 3 -1 5 -18 5 -16 0 -22 -2 -12 -5z"/>
</g>
</svg>
